<?xml version="1.0" standalone="no"?>
<!DOCTYPE svg PUBLIC "-//W3C//DTD SVG 20010904//EN"
 "http://www.w3.org/TR/2001/REC-SVG-20010904/DTD/svg10.dtd">
<svg version="1.0" xmlns="http://www.w3.org/2000/svg"
 width="639.000000pt" height="390.000000pt" viewBox="0 0 639.000000 390.000000"
 preserveAspectRatio="xMidYMid meet">

<g transform="translate(0.000000,390.000000) scale(0.100000,-0.100000)"
fill="#000000" stroke="none">
<path d="M3132 3332 c-34 -34 -62 -98 -62 -141 0 -31 6 -46 27 -66 33 -30 60
-31 90 -6 51 43 49 95 -8 190 l-27 43 -20 -20z"/>
<path d="M2913 3094 c10 -61 32 -86 75 -82 35 3 37 5 40 42 4 49 -24 75 -82
76 l-39 0 6 -36z"/>
<path d="M3325 3053 c-36 -9 -65 -44 -65 -80 0 -32 2 -33 38 -33 20 0 44 6 52
13 13 10 40 78 40 101 0 7 -34 6 -65 -1z"/>
<path d="M277 2983 c-4 -3 -7 -431 -7 -950 l0 -943 2875 0 2875 0 -2 948 -3
947 -1055 0 -1055 0 0 -25 0 -25 1030 -5 1030 -5 -3 -885 c-2 -486 -5 -886 -7
-888 -9 -9 -5607 -4 -5616 5 -5 5 -8 366 -7 889 l3 879 1025 5 1025 5 0 25 0
25 -1051 3 c-578 1 -1054 -1 -1057 -5z"/>
<path d="M3003 2763 c-20 -7 -15 -30 7 -36 23 -6 56 16 46 31 -7 12 -31 14
-53 5z"/>
<path d="M3132 2628 c5 -32 28 -35 28 -4 0 17 -5 26 -16 26 -10 0 -14 -7 -12
-22z"/>
<path d="M2620 2020 l0 -222 88 4 c156 8 212 67 212 225 0 93 -18 134 -77 176
-34 24 -52 29 -131 34 l-92 6 0 -223z m181 163 c48 -24 55 -32 75 -96 16 -50
16 -64 5 -110 -26 -103 -75 -142 -171 -135 l-45 3 -3 165 c-1 90 0 170 2 177
8 19 96 16 137 -4z"/>
<path d="M3157 2234 c-4 -4 -7 -104 -7 -221 0 -199 1 -214 18 -211 16 3 17 21
17 217 0 203 -5 238 -28 215z"/>
<path d="M3554 2231 c-105 -26 -165 -137 -142 -262 14 -79 47 -124 112 -153
50 -24 133 -17 176 14 31 22 31 22 28 108 l-3 87 -60 0 c-47 0 -60 -3 -60 -15
0 -10 13 -16 43 -18 l42 -3 0 -64 c0 -75 -10 -85 -88 -85 -57 0 -105 27 -133
75 -21 36 -25 161 -6 197 16 31 46 62 74 77 31 16 114 13 137 -4 25 -19 36
-19 36 -2 0 38 -89 65 -156 48z"/>
</g>
</svg>
